<?xml version="1.0" encoding="UTF-8"?>
<svg width="230px" height="229px" viewBox="0 0 230 229" version="1.1" xmlns="http://www.w3.org/2000/svg" xmlns:xlink="http://www.w3.org/1999/xlink">
    <title>logo-surfsolana-solsurfer</title>
    <defs>
        <linearGradient x1="38.0459112%" y1="7.67516249%" x2="50%" y2="85.40894%" id="linearGradient-1">
            <stop stop-color="#FDDE7F" offset="0%"></stop>
            <stop stop-color="#E2BB51" offset="45.2687937%"></stop>
            <stop stop-color="#D9A444" offset="100%"></stop>
        </linearGradient>
        <linearGradient x1="57.9053754%" y1="34.4585912%" x2="-29.5336927%" y2="97.2915712%" id="linearGradient-2">
            <stop stop-color="#6795ED" offset="0%"></stop>
            <stop stop-color="#123369" offset="65.6042373%"></stop>
            <stop stop-color="#072557" offset="100%"></stop>
        </linearGradient>
        <linearGradient x1="57.1289878%" y1="34.4585912%" x2="-21.7226819%" y2="97.2915712%" id="linearGradient-3">
            <stop stop-color="#6795ED" offset="0%"></stop>
            <stop stop-color="#123369" offset="65.6042373%"></stop>
            <stop stop-color="#072557" offset="100%"></stop>
        </linearGradient>
    </defs>
    <g id="Page-1" stroke="none" stroke-width="1" fill="none" fill-rule="evenodd">
        <g id="logo-surfsolana-solsurfer">
            <path d="M116.5,0 C180.841173,0 229.96217,52.7945093 229.96217,117.135683 C229.96217,119.998436 229.858913,122.837072 229.655922,125.64807 C225.637704,71.9224692 185.375834,25.5 132,25.5 C75.9430979,25.5 30.5,71.8385284 30.5,129 C30.5,129.676099 30.5,131.143314 30.5,133.401645 C67.7215438,90.6429683 109.961135,74.1930502 157.218775,84.0518905 C157.218775,84.0518905 163.954106,85.9550339 165.83943,87.8999647 C165.676746,87.8775558 158.596702,87.8144338 157.730794,87.8999647 C102.170864,93.38795 60.4400573,133.642339 29.0925192,193.520893 C10.9867458,172.993386 0,146.029739 0,116.5 C0,52.1588266 52.1588266,0 116.5,0 Z" id="Path-Copy" fill="url(#linearGradient-1)"></path>
            <path d="M152.017507,103.857611 C145.371141,111.741867 141,119.77386 141,131 C141,155.852814 160.699471,176 185,176 C199.735979,176 212.780021,168.591318 220.765296,157.217303 C209.312123,185.683207 186.752869,208.485687 158.452962,220.260275 C134.924393,208.318559 119,185.360939 119,159 C119,135.26056 132.266346,116.515224 152.017507,103.857611 Z" id="Shape-Copy" fill="url(#linearGradient-2)"></path>
            <path d="M157.108893,94.9040488 C129.030332,108.396751 108,132.139321 108,161 C108,187.061399 123.403162,210.137555 147.067374,224.302033 C136.746343,227.35878 125.814835,229 114.5,229 C88.7149613,229 64.9206372,220.476737 45.7807067,206.093891 C59.5326356,150.590506 106.115318,103.699563 157.108893,94.9040488 Z" id="Path-Copy-2" fill="url(#linearGradient-3)"></path>
        </g>
    </g>
</svg>